<svg xmlns="http://www.w3.org/2000/svg" id="图层_1" data-name="图层 1" viewBox="0 0 228.52 200"><defs><style>.cls-1{fill:#fff}</style></defs><title>vr全景图@3x</title><polygon points="62.49 5.05 62.49 5.05 62.51 5.05 62.49 5.05" class="cls-1"/><path d="M219.64,41.19c0-15.24-18.07-27.33-46.92-34.49l-6.65-1.64V66.24a239.68,239.68,0,0,1-51.78,5.3,239.73,239.73,0,0,1-51.79-5.3V5L55.86,6.7C27,13.85,8.92,26,8.92,41.19c0,.09,0,.17,0,.26v114c0,24.17,47.3,41.08,105.35,41.08s105.36-16.9,105.36-41.08V41.19ZM176.79,18.91c20.38,6.06,32.14,14.64,32.14,22.28s-11.75,16.22-32.14,22.29ZM19.65,41.19c0-7.65,11.74-16.22,32.13-22.29V63.48C31.4,57.4,19.64,48.84,19.64,41.19Zm24,133.88,24.6-34.43,26.33,25.53,24.95-37.39,42.8,52.55a246.82,246.82,0,0,1-48,4.52C86.15,185.84,60.92,181.47,43.6,175.07Zm130.29,3.52-55.27-67.84L92.76,149.52l-26-25.24-33.13,46.4c-8.84-4.63-13.94-9.91-13.94-15.21V60c8.15,6.48,20.6,11.81,36.22,15.68,17,4.28,37.24,6.58,58.43,6.58s41.42-2.3,58.45-6.59c15.61-3.87,28.06-9.19,36.2-15.67v95.48C208.93,164.14,195.28,172.76,173.89,178.59Z" class="cls-1"/><path d="M171.42,85.82a19.65,19.65,0,0,0-19.65,19.64q0,.43,0,.86a19.65,19.65,0,1,0,39.29-.86h0A19.65,19.65,0,0,0,171.42,85.82Zm.28,28.29a8.93,8.93,0,0,1-9.22-8.64q0-.29,0-.58a8.93,8.93,0,1,1,9.22,9.22Z" class="cls-1"/><polygon points="94.53 166.17 94.53 166.17 94.52 166.17 94.53 166.17" class="cls-1"/></svg>